<svg data-v-0dd9719b="" version="1.0" xmlns="http://www.w3.org/2000/svg" xmlns:xlink="http://www.w3.org/1999/xlink" width="100%" height="100%" viewBox="0 0 340.000000 250.000000" preserveAspectRatio="xMidYMid meet" color-interpolation-filters="sRGB" style="margin: auto;"> <rect data-v-0dd9719b="" x="0" y="0" width="100%" height="100%" fill="#fff" fill-opacity="1" class="background"></rect> <rect data-v-0dd9719b="" x="0" y="0" width="100%" height="100%" fill="url(#watermark)" fill-opacity="1" class="watermarklayer"></rect> <g data-v-0dd9719b="" fill="#333" class="icon-text-wrapper icon-svg-group iconsvg" transform="translate(47.95000457763672,94.95583534240723)"><g class="iconsvg-imagesvg" transform="translate(0,0)"><g><rect fill="#333" fill-opacity="0" stroke-width="2" x="0" y="0" width="60" height="60.08832984487196" class="image-rect"></rect> <svg x="0" y="0" width="60" height="60.08832984487196" filtersec="colorsb9280702725" class="image-svg-svg primary" style="overflow: visible;"><svg xmlns="http://www.w3.org/2000/svg" viewBox="-0.001293182373046875 0.002758026123046875 99.85157775878906 99.99821472167969"><g fill-rule="evenodd"><path d="M46.48 18.63l1.23-.71.62-.35.49-.27C81.4-.63 110.38 7.82 87.5 44.17c-.64 1-1.33 2.08-2.06 3.15-.86-1.47-1.76-2.94-2.73-4.41l-.34-.68q1-1.53 1.86-2.91c12.24-21-17.45-17.65-50.13 3.41l-1-2a29.42 29.42 0 0 1-1.46-3.48c-.79-2.27-1.44-4.44-1.93-6.47a112.67 112.67 0 0 1 12.8-9.7l1.49-.94.62-.38c.62-.39 1.23-.76 1.85-1.12zM18.59 53.76a109.86 109.86 0 0 0 12.85 17.76 47.53 47.53 0 0 0 8.69-3.3l2.92-1.46a141.32 141.32 0 0 1-13.54-26.32 74.21 74.21 0 0 1-3.22-10.75C23.38 15.68 28 8.86 41.72 17.92q2.53-1.61 5.11-3.05C10.23-9.6.2 16.24 15.34 47.61q1.47 3.05 3.25 6.15zm51.86 16.73c-.32-1.29-.71-2.69-1.19-4.23a48.42 48.42 0 0 0-2.76-6.82l-.45-.89c-34.1 22-64.95 24.71-48.27.51a94.943 94.943 0 0 1-3.12-5c-25.42 37.37.92 47.55 32.69 32a98.59 98.59 0 0 0 11.13-6.41 111 111 0 0 0 11.97-9.16zm11.11-23a110.89 110.89 0 0 0-12.84-17.74q-2.58.7-5.51 1.72l-6.1 3A141.2 141.2 0 0 1 70.7 61c.07.19.14.37.2.56s.19.49.27.73.2.56.29.83c.34 1 .65 1.91.93 2.83.06.18.11.36.16.54l.14.47c.06.22.13.44.19.65.05.17.1.34.14.51.33 1.21.61 2.37.84 3.49 2.91 14-1.73 20.8-15.42 11.75l-5.11 3C89.93 110.87 100 85 84.82 53.67q-1.47-3.04-3.26-6.14z" fill="#15355c"></path><path d="M49 13.47l-.48.27c-1.19-.79-2.35-1.53-3.48-2.21.61-.38 1.22-.75 1.83-1.1l1.23-.7.62-.36.49-.27C75.2-5.2 98.87-2.75 95.86 17.22 94.9 1.36 72.93.31 49 13.47zM10 53.22c.65 1.12 1.33 2.24 2 3.37.67-1.07 1.38-2.16 2.14-3.28q-1.74-3-3.18-6C.34 25.12 2.21 5.71 17.15 4.88-1.61 2.1-4.85 23 6.79 47.07q1.47 3.05 3.26 6.15zm37 36.6c-20.31 9.93-38.39 9.36-42.17-2.1 1.39 14.46 20.81 16.06 42.85 5.28 2.33-1.14 4.68-2.41 7.06-3.83q-1.43-.87-2.91-1.86-2.41 1.34-4.83 2.51zM93 54.1q-1.47-3-3.26-6.14l-1-1.67-.11.17c-.63 1-1.31 2-2 3.08.8 1.46 1.55 2.92 2.25 4.36 10.71 22.19 8.82 41.62-6.17 42.41C101.47 99 104.69 78.19 93.06 54.1z" fill="#009ed6"></path></g></svg></svg> <!----></g></g> <g transform="translate(67,11.434164047241211)"><g data-gra="path-name" fill-rule="" class="tp-name iconsvg-namesvg"><g transform="scale(1)"><g><path d="M32.62-5.43L32.36 0 38.87 0C38.87-0.26 38.87-19.02 38.87-19.28L19.64-19.28 19.64-14.22 32.46-14.22C31.95-9.82 27.45-5.27 20.88-5.27 12.87-5.27 8.84-10.86 8.84-18.09 8.84-25.12 13.7-30.55 20.94-30.55 26.47-30.55 30.03-27.97 31.38-23.83L38.77-23.83C37.01-32.88 30.76-36.7 20.88-36.7 9.36-36.7 2.07-29.47 2.07-18.09 2.07-6.77 8.63 0.52 20.16 0.52 28.38 0.52 31.53-3.46 32.36-5.43ZM45.03 0L52 0 52-12.77 60.12-12.77 66.89 0 74.75 0 66.32-13.96C70.72-16.13 72.68-20.88 72.68-24.76 72.68-32.05 68.13-36.19 59.97-36.19L45.03-36.19ZM52-18.56L52-30.09 59.19-30.09C63.84-30.09 66.12-28.17 66.12-24.61 66.12-20.78 63.43-18.56 59.24-18.56ZM97.13-36.19L88.29-36.19 75.32 0 82.87 0 85.14-6.72 100.86-6.72 103.29 0 111.35 0ZM86.95-12.15L92.48-28.69 93-28.69 98.94-12.15ZM130.37 0.52C140.66 0.52 146.24-5.53 147.43-13.03L140.35-13.03C139.16-8.53 135.49-5.58 130.17-5.58 123.08-5.58 118.59-11.84 118.59-18.61 118.59-25.74 123.6-30.55 130.06-30.55 136.21-30.55 139.42-27.09 140.45-22.8L147.43-22.8C146.4-31.69 139.42-36.7 129.6-36.7 118.59-36.7 111.76-28.38 111.76-18.09 111.76-7.86 118.02 0.52 130.37 0.52ZM152.4 0L179.17 0 179.17-6.82 159.43-6.82 159.43-15.3 177.52-15.3 177.52-21.71 159.43-21.71 159.43-29.41 179.17-29.41 179.17-36.19 152.4-36.19Z" transform="translate(-2.069999933242798, 36.70000076293945)"></path></g> <!----> <!----> <!----> <!----> <!----> <!----> <!----></g></g> <!----></g></g><defs v-gra="od"></defs></svg>